<mxfile host="app.diagrams.net" modified="2022-04-11T12:40:15.928Z" agent="5.0 (Windows NT 10.0; Win64; x64) AppleWebKit/537.36 (KHTML, like Gecko) Chrome/100.0.4896.75 Safari/537.36" etag="HjKqoDuxmi__fqJRdD1u" version="17.4.1" type="github" pages="2">
  <diagram id="Z73tbLHPOR8Vc6FfW8Ey" name="Page-1">
    <mxGraphModel dx="1210" dy="642" grid="1" gridSize="10" guides="1" tooltips="1" connect="1" arrows="1" fold="1" page="1" pageScale="1" pageWidth="827" pageHeight="1169" math="0" shadow="0">
      <root>
        <mxCell id="0" />
        <mxCell id="1" parent="0" />
        <mxCell id="7_Mu6DJWakp7cGuOH3Pt-7" value="" style="edgeStyle=orthogonalEdgeStyle;rounded=0;orthogonalLoop=1;jettySize=auto;html=1;" edge="1" parent="1" source="YBqNEY8ZDZaAP4jk9qvA-1" target="7_Mu6DJWakp7cGuOH3Pt-6">
          <mxGeometry relative="1" as="geometry" />
        </mxCell>
        <mxCell id="YBqNEY8ZDZaAP4jk9qvA-1" value="&lt;h1&gt;&lt;font face=&quot;宋体&quot;&gt;文献阅读、确定选题&lt;/font&gt;&lt;/h1&gt;" style="rounded=0;whiteSpace=wrap;html=1;" parent="1" vertex="1">
          <mxGeometry x="330" y="30" width="240" height="60" as="geometry" />
        </mxCell>
        <mxCell id="7_Mu6DJWakp7cGuOH3Pt-11" value="" style="edgeStyle=orthogonalEdgeStyle;rounded=0;orthogonalLoop=1;jettySize=auto;html=1;" edge="1" parent="1" target="7_Mu6DJWakp7cGuOH3Pt-10">
          <mxGeometry relative="1" as="geometry">
            <mxPoint x="450" y="220" as="sourcePoint" />
            <Array as="points">
              <mxPoint x="660" y="220" />
            </Array>
          </mxGeometry>
        </mxCell>
        <mxCell id="7_Mu6DJWakp7cGuOH3Pt-14" style="edgeStyle=orthogonalEdgeStyle;rounded=0;orthogonalLoop=1;jettySize=auto;html=1;exitX=0.25;exitY=1;exitDx=0;exitDy=0;" edge="1" parent="1" source="7_Mu6DJWakp7cGuOH3Pt-6">
          <mxGeometry relative="1" as="geometry">
            <mxPoint x="290" y="290" as="targetPoint" />
            <Array as="points">
              <mxPoint x="450" y="190" />
              <mxPoint x="450" y="220" />
              <mxPoint x="290" y="220" />
              <mxPoint x="290" y="250" />
            </Array>
          </mxGeometry>
        </mxCell>
        <mxCell id="7_Mu6DJWakp7cGuOH3Pt-6" value="野外调查与数据收集" style="whiteSpace=wrap;html=1;rounded=0;" vertex="1" parent="1">
          <mxGeometry x="390" y="130" width="120" height="60" as="geometry" />
        </mxCell>
        <mxCell id="7_Mu6DJWakp7cGuOH3Pt-13" value="" style="edgeStyle=orthogonalEdgeStyle;rounded=0;orthogonalLoop=1;jettySize=auto;html=1;" edge="1" parent="1" source="7_Mu6DJWakp7cGuOH3Pt-10" target="7_Mu6DJWakp7cGuOH3Pt-12">
          <mxGeometry relative="1" as="geometry" />
        </mxCell>
        <mxCell id="7_Mu6DJWakp7cGuOH3Pt-10" value="" style="whiteSpace=wrap;html=1;rounded=0;" vertex="1" parent="1">
          <mxGeometry x="600" y="240" width="120" height="60" as="geometry" />
        </mxCell>
        <mxCell id="7_Mu6DJWakp7cGuOH3Pt-12" value="" style="whiteSpace=wrap;html=1;rounded=0;" vertex="1" parent="1">
          <mxGeometry x="450" y="410" width="120" height="60" as="geometry" />
        </mxCell>
      </root>
    </mxGraphModel>
  </diagram>
  <diagram id="TKM5LF63PqnuIIkuO-Xy" name="Page-2">
    <mxGraphModel dx="1210" dy="642" grid="1" gridSize="10" guides="1" tooltips="1" connect="1" arrows="1" fold="1" page="1" pageScale="1" pageWidth="827" pageHeight="1169" math="0" shadow="0">
      <root>
        <mxCell id="0" />
        <mxCell id="1" parent="0" />
      </root>
    </mxGraphModel>
  </diagram>
</mxfile>
